<svg width="22" height="21" viewBox="0 0 22 21" fill="none" xmlns="http://www.w3.org/2000/svg">
<path d="M14.875 19.5771V3.57715C14.875 3.04672 14.6643 2.53801 14.2892 2.16293C13.9141 1.78786 13.4054 1.57715 12.875 1.57715H8.875C8.34457 1.57715 7.83586 1.78786 7.46079 2.16293C7.08571 2.53801 6.875 3.04672 6.875 3.57715V19.5771M2.875 5.57715H18.875C19.9796 5.57715 20.875 6.47258 20.875 7.57715V17.5771C20.875 18.6817 19.9796 19.5771 18.875 19.5771H2.875C1.77043 19.5771 0.875 18.6817 0.875 17.5771V7.57715C0.875 6.47258 1.77043 5.57715 2.875 5.57715Z" stroke="#5784E9" stroke-width="1.5" stroke-linecap="round" stroke-linejoin="round"/>
</svg>
