<svg width="22" height="22" viewBox="0 0 22 22" fill="none" xmlns="http://www.w3.org/2000/svg">
<path d="M13.176 7.51717L7.40596 13.2872C7.1135 13.58 7.1135 14.0544 7.40596 14.3472C7.54584 14.4888 7.73689 14.5681 7.93596 14.5672C8.13525 14.5693 8.32673 14.4898 8.46596 14.3472L14.236 8.57717C14.4366 8.3902 14.5192 8.10861 14.4513 7.84288C14.3835 7.57715 14.176 7.36965 13.9102 7.30178C13.6445 7.23392 13.3629 7.31652 13.176 7.51717Z" fill="#F8C644"/>
<path d="M8.97596 8.67717C8.97596 9.09138 8.64017 9.42717 8.22596 9.42717C7.81174 9.42717 7.47596 9.09138 7.47596 8.67717C7.47596 8.26296 7.81174 7.92717 8.22596 7.92717C8.64017 7.92717 8.97596 8.26296 8.97596 8.67717Z" fill="#F8C644"/>
<path d="M14.256 13.1872C14.256 13.6014 13.9202 13.9372 13.506 13.9372C13.0917 13.9372 12.756 13.6014 12.756 13.1872C12.756 12.773 13.0917 12.4372 13.506 12.4372C13.9202 12.4372 14.256 12.773 14.256 13.1872Z" fill="#F8C644"/>
<path fill-rule="evenodd" clip-rule="evenodd" d="M21.0147 6.79852C21.345 7.65368 21.1285 8.62356 20.4658 9.25706C19.9862 9.68582 19.712 10.2987 19.712 10.9421C19.712 11.5854 19.9862 12.1983 20.4658 12.6271C21.1578 13.2558 21.3935 14.2444 21.0597 15.1177C20.7258 15.991 19.8907 16.5703 18.9558 16.5771H18.7058C18.0851 16.5818 17.4931 16.8394 17.0666 17.2905C16.64 17.7415 16.4159 18.347 16.4459 18.9671C16.479 19.5905 16.2529 20.1998 15.821 20.6506C15.3892 21.1014 14.7901 21.3535 14.1658 21.3471C13.5304 21.3473 12.9256 21.0741 12.5058 20.5971C12.0754 20.1203 11.4632 19.8481 10.8208 19.8481C10.1785 19.8481 9.56626 20.1203 9.13585 20.5971C8.71607 21.0741 8.11127 21.3473 7.47585 21.3471C6.84793 21.3538 6.24551 21.099 5.813 20.6438C5.3805 20.1885 5.15691 19.5738 5.19585 18.9471C5.22302 18.3287 4.99761 17.7259 4.57139 17.277C4.14518 16.8282 3.5548 16.5719 2.93585 16.5671H2.68585C1.7915 16.5246 1.00565 15.9604 0.679462 15.1266C0.353276 14.2928 0.547698 13.3451 1.17585 12.7071C1.65217 12.2785 1.92416 11.6678 1.92416 11.0271C1.92416 10.3863 1.65217 9.77566 1.17585 9.34706C0.444567 8.72613 0.182583 7.71251 0.521396 6.81499C0.86021 5.91748 1.72666 5.32985 2.68585 5.34706H2.93585C3.56307 5.34567 4.16175 5.08483 4.58985 4.62642C5.01795 4.16802 5.2373 3.55291 5.19585 2.92706C5.17398 2.31045 5.40517 1.7117 5.83575 1.26979C6.26633 0.827873 6.85888 0.581216 7.47585 0.587064C8.11372 0.585335 8.72035 0.863069 9.13585 1.34706C9.57051 1.81978 10.1837 2.08827 10.8258 2.08706C11.4645 2.08547 12.0735 1.81722 12.5058 1.34706C12.9195 0.859346 13.5264 0.577832 14.1658 0.577064C14.7919 0.570484 15.3927 0.823924 15.8248 1.27695C16.257 1.72998 16.4819 2.34199 16.4459 2.96706C16.4158 3.58619 16.6403 4.19068 17.0671 4.64017C17.4939 5.08966 18.086 5.34506 18.7058 5.34706H18.9558C19.8723 5.37077 20.6845 5.94335 21.0147 6.79852ZM19.3659 14.4571C19.4483 14.2829 19.3984 14.0748 19.2458 13.9571V13.8971C18.4078 13.1246 17.9311 12.0368 17.9311 10.8971C17.9311 9.75732 18.4078 8.66953 19.2458 7.89706C19.3984 7.7793 19.4483 7.57122 19.3659 7.39706C19.3084 7.22034 19.1416 7.10238 18.9559 7.10706H18.7059C17.5902 7.10485 16.5242 6.64591 15.7558 5.83706C14.9943 5.02838 14.5905 3.94699 14.6358 2.83706C14.6526 2.71771 14.6161 2.59702 14.5358 2.50706C14.439 2.40615 14.3057 2.34848 14.1658 2.34706C14.0233 2.33386 13.8839 2.39416 13.7958 2.50706C13.0278 3.35444 11.9395 3.84059 10.7958 3.84706C9.65251 3.83936 8.56459 3.35342 7.79585 2.50706C7.71837 2.40869 7.60103 2.35003 7.47585 2.34706C7.33602 2.34848 7.20265 2.40615 7.10585 2.50706C7.02563 2.59702 6.98906 2.71771 7.00585 2.83706C7.07192 3.95836 6.6728 5.0573 5.90256 5.87485C5.13231 6.69241 4.05909 7.15626 2.93585 7.15706H2.71585C2.52019 7.14201 2.33916 7.26132 2.27585 7.44706C2.19338 7.62122 2.24332 7.8293 2.39585 7.94706C3.2412 8.71654 3.72692 9.80399 3.73585 10.9471C3.72937 12.0907 3.24323 13.1791 2.39585 13.9471C2.24332 14.0648 2.19338 14.2729 2.27585 14.4471C2.32663 14.6299 2.49623 14.754 2.68585 14.7471H2.93585C4.05085 14.7513 5.11578 15.2106 5.88413 16.0186C6.65249 16.8266 7.05765 17.9133 7.00585 19.0271C6.98778 19.1435 7.02472 19.2617 7.10585 19.3471C7.21389 19.4548 7.3638 19.5096 7.51585 19.4971C7.63879 19.494 7.75483 19.4396 7.83585 19.3471C8.60603 18.4867 9.70613 17.995 10.8608 17.995C12.0156 17.995 13.1157 18.4867 13.8858 19.3471C13.9556 19.4339 14.0556 19.4911 14.1658 19.5071C14.3057 19.5056 14.439 19.448 14.5358 19.3471C14.617 19.2617 14.6539 19.1435 14.6358 19.0271C14.595 17.9179 14.9981 16.8382 15.7558 16.0271C16.5269 15.2221 17.5912 14.7639 18.7059 14.7571H18.9258C19.1253 14.7747 19.3094 14.6491 19.3659 14.4571Z" fill="#F8C644"/>
</svg>
