<svg width="44" height="44" viewBox="0 0 44 44" fill="none" xmlns="http://www.w3.org/2000/svg">
<path d="M43.8897 21.7886C43.8897 33.8138 34.0813 43.5771 22.0005 43.5771C9.91975 43.5771 0.111328 33.8138 0.111328 21.7886C0.111328 9.76334 9.91975 0 22.0005 0C34.0813 0 43.8897 9.76334 43.8897 21.7886Z" fill="white"/>
<path d="M37.6195 24.4799C36.3251 31.9241 29.8245 37.5645 22.0008 37.5645C20.2174 37.5645 18.4916 37.2496 16.8808 36.7056L14.666 41.1148C16.9383 41.9738 19.4408 42.4605 22.0008 42.4605C32.6146 42.4605 41.3587 34.5296 42.5956 24.2795L37.6195 24.4799Z" fill="#FF7800"/>
<path d="M15.7293 36.2762C10.0916 33.8711 6.15102 28.288 6.15102 21.7886C6.15102 13.056 13.2269 6.01267 21.9998 6.01267C30.7727 6.01267 37.8486 13.0846 37.8486 21.7886C37.8486 22.304 37.8199 22.7907 37.7623 23.2775L42.7097 23.1057C42.7385 22.6762 42.7672 22.2467 42.7672 21.8173C42.7672 10.3933 33.4765 1.14531 21.9998 1.14531C10.5231 1.14531 1.23242 10.3647 1.23242 21.7886C1.23242 30.2063 6.29483 37.4501 13.5433 40.6568L15.7293 36.2762Z" fill="#393D46"/>
<path d="M9.80538 37.4786L9 36.9346L10.2368 35.1595C10.4957 34.7873 10.7833 34.6155 11.071 34.6441C11.3874 34.6727 11.8764 34.9304 12.5667 35.4171C13.3146 35.9325 13.746 36.3047 13.8898 36.5624C14.0336 36.8201 13.9761 37.1637 13.746 37.5072L12.5092 39.311L11.7038 38.767L12.9406 36.9633C13.0844 36.7628 13.1132 36.591 13.0269 36.4765C12.9406 36.3334 12.7105 36.1329 12.3078 35.8753C11.8764 35.5889 11.5887 35.4458 11.4449 35.4171C11.3011 35.3885 11.1573 35.503 11.0135 35.7035L9.80538 37.4786Z" fill="white"/>
<path d="M4.82812 32.0672L7.3881 30.063L8.39483 31.3515L7.87708 33.5847C7.84831 33.6992 7.79079 33.871 7.7045 34.1287L7.61821 34.415L7.53191 34.6727L7.56068 34.7013L7.73326 34.5582L7.90584 34.415L8.25101 34.1573L9.71796 33.0121L10.322 33.7851L7.76202 35.7893L6.75529 34.5009L7.24428 32.4395C7.3018 32.2677 7.33057 32.0386 7.41686 31.7809L7.50315 31.466L7.58944 31.151L7.56068 31.1224L7.3881 31.2656L7.21551 31.4087L6.89911 31.6664L5.4034 32.8117L4.82812 32.0672Z" fill="white"/>
<path d="M6.73352 28.4441L3.79688 29.8307L4.21603 30.7103L7.15268 29.3236L6.73352 28.4441Z" fill="white"/>
<path d="M2.38387 25.3962L2.125 24.3941L5.6917 25.1957L6.06563 26.6273L3.30431 29.0037L3.04544 28.0303L4.59868 26.6559C4.7425 26.5128 5.00137 26.3124 5.34654 26.0547V26.0261L5.11643 25.9974C4.82879 25.9402 4.56992 25.9115 4.39733 25.8543L2.38387 25.3962Z" fill="white"/>
<path d="M2.58415 22.3899L3.44706 22.4185L3.47583 20.0134L3.93605 20.0421L3.90728 22.4185H4.82772L4.85649 19.8989H5.37423L5.31671 23.4206L2.06641 23.3633L2.12393 19.8703H2.64168L2.58415 22.3899Z" fill="white"/>
<path d="M5.40478 19.3262L2.26953 18.4673L2.9311 16.0336C3.10368 15.4324 3.27626 15.0315 3.47761 14.8311C3.67895 14.6307 3.93783 14.602 4.28299 14.6879C4.59939 14.7738 4.80074 14.8884 4.88703 15.0315C4.97332 15.1747 5.00208 15.4324 4.94456 15.8046H4.97332C5.1459 15.2606 5.43354 15.0602 5.80747 15.146L6.4978 15.3465L6.23892 16.3199L5.66365 16.1768C5.34725 16.0909 5.11714 16.2913 4.97332 16.778L4.59939 18.1237L5.66365 18.41L5.40478 19.3262ZM4.11041 17.9806L4.48434 16.6349C4.57063 16.3199 4.59939 16.0909 4.54186 15.9764C4.48434 15.8618 4.36928 15.7473 4.13917 15.69C3.90906 15.6328 3.76524 15.6328 3.67895 15.7187C3.59266 15.8046 3.50637 15.9764 3.42008 16.2913L3.04615 17.6943L4.11041 17.9806Z" fill="white"/>
<path d="M6.7848 10.3646L6.29582 11.1663C6.26706 11.1663 6.23829 11.1376 6.23829 11.1376C6.06571 11.0517 5.95065 11.0517 5.8356 11.109C5.74931 11.1663 5.60549 11.3667 5.40414 11.7103C5.17403 12.1111 5.03022 12.3688 5.00145 12.5119C4.97269 12.6551 5.03022 12.7696 5.17403 12.8555C5.34662 12.97 5.49044 12.97 5.57673 12.9128C5.66302 12.8269 5.89313 12.5406 6.23829 11.9966C6.66975 11.3667 6.95738 10.9658 7.18749 10.8513C7.38884 10.7082 7.64771 10.7368 7.96411 10.9372C8.33804 11.1663 8.51062 11.4239 8.48186 11.7103C8.4531 11.9966 8.19422 12.5119 7.734 13.285C7.33131 13.9721 6.98615 14.4016 6.75604 14.5448C6.52593 14.7166 6.23829 14.6879 5.89313 14.4875L5.77807 14.4303L6.26706 13.6286L6.32458 13.6572C6.52593 13.7717 6.66975 13.8004 6.7848 13.7145C6.89986 13.6286 7.1012 13.3709 7.38884 12.8841C7.61895 12.5119 7.734 12.2543 7.734 12.1397C7.734 11.9966 7.64771 11.882 7.47513 11.7675C7.33131 11.6816 7.21626 11.6816 7.12997 11.7103C7.04368 11.7675 6.89986 11.9107 6.75604 12.1684L6.4684 12.6265C6.03695 13.3136 5.69178 13.7145 5.49044 13.829C5.28909 13.9721 5.00145 13.9435 4.68505 13.7431C4.36865 13.5427 4.22483 13.3136 4.2536 12.9987C4.28236 12.7124 4.51247 12.197 4.94392 11.5098C5.34662 10.8513 5.66302 10.4505 5.89313 10.2787C6.12324 10.1069 6.38211 10.1069 6.66975 10.2787L6.7848 10.3646Z" fill="white"/>
<path d="M7.5109 8.18974L6.85742 8.914L9.27564 11.0759L9.92912 10.3516L7.5109 8.18974Z" fill="white"/>
<path d="M10.3798 6.35617L12.0481 8.4749L11.3002 9.07616L9.6319 6.95743L8.45259 7.87364L8.10742 7.44417L11.2427 4.98186L11.5878 5.41133L10.3798 6.35617Z" fill="white"/>
<path d="M16.1329 2.69135L15.2125 5.29681L15.7015 6.44207L14.8098 6.84291L14.3208 5.69765L11.8184 4.58102L12.8539 4.12292L13.9181 4.58102C13.9756 4.60966 14.0907 4.66692 14.2345 4.72418L14.3783 4.81008L14.5221 4.89597H14.5509L14.6084 4.72418L14.666 4.55239C14.6947 4.40924 14.7235 4.29471 14.7523 4.20881L15.0687 3.14945L16.1329 2.69135Z" fill="white"/>
<path d="M17.7141 5.64035L17.2539 2.43362L19.7564 2.09004C20.3316 2.00415 20.7343 2.00415 20.9644 2.09004C21.1945 2.17593 21.3384 2.37636 21.3671 2.71993C21.4246 3.12077 21.1945 3.37846 20.7056 3.52162C21.2808 3.49298 21.626 3.72204 21.6835 4.18014C21.741 4.49509 21.6548 4.75277 21.4534 4.92456C21.2521 5.09635 20.8781 5.21087 20.3029 5.29677L17.7141 5.64035ZM18.4045 3.63614L19.5838 3.46435C19.9577 3.40709 20.2166 3.34983 20.3029 3.29256C20.3892 3.2353 20.4467 3.09214 20.4179 2.89172C20.3892 2.63404 20.1303 2.54814 19.6701 2.60541L18.2894 2.80583L18.4045 3.63614ZM18.6058 5.01045L19.6701 4.8673L20.0152 4.81003C20.3316 4.75277 20.5617 4.69551 20.648 4.63824C20.7343 4.55235 20.7631 4.43782 20.7631 4.2374C20.7343 4.03698 20.6768 3.92246 20.5617 3.89383C20.4467 3.86519 20.1878 3.86519 19.7564 3.92246L18.5195 4.09425L18.6058 5.01045Z" fill="white"/>
<path d="M24.9628 2.14734C25.8833 2.2905 26.4585 2.46228 26.6886 2.69134C26.9188 2.92039 27.005 3.37849 26.89 4.03702C26.7749 4.78144 26.5736 5.21091 26.286 5.3827C25.9983 5.52586 25.3367 5.52586 24.3013 5.3827C23.4096 5.26817 22.8343 5.09638 22.5754 4.86733C22.3453 4.63828 22.259 4.20881 22.3453 3.55028C22.4604 2.77723 22.6617 2.31913 22.9494 2.17597C23.2658 2.00418 23.9273 2.00418 24.9628 2.14734ZM24.819 2.66271C24.1862 2.57681 23.7835 2.57681 23.6685 2.66271C23.5534 2.7486 23.4383 3.12081 23.3521 3.72207C23.2945 4.18018 23.2945 4.46649 23.4096 4.58102C23.5246 4.69554 23.8986 4.78144 24.5026 4.89596C25.1066 4.98186 25.4518 4.98186 25.5956 4.89596C25.7394 4.81007 25.8257 4.49512 25.912 3.95112C25.9983 3.40712 25.9695 3.09218 25.8833 2.97765C25.797 2.86313 25.423 2.7486 24.819 2.66271Z" fill="white"/>
<path d="M32.3847 4.72423L30.3424 5.52592L31.1191 7.73054L30.0836 7.27244L29.7384 6.27034C29.6809 6.12718 29.6521 5.95539 29.5946 5.81223L29.5658 5.64044L29.5083 5.46865L29.3645 5.52592C29.1919 5.61181 28.9905 5.69771 28.7604 5.7836L27.7537 6.18444L26.6895 5.69771L28.9043 4.86739L28.1564 2.80592L29.2207 3.29266L29.5371 4.2375C29.5946 4.38066 29.6234 4.52381 29.6809 4.66697L29.7096 4.81013L29.7384 4.95329C29.7959 4.92465 29.8535 4.89602 29.8822 4.89602L30.026 4.83876C30.1411 4.7815 30.2849 4.72423 30.4287 4.66697L31.3492 4.29476L32.3847 4.72423Z" fill="white"/>
<path d="M31.5963 7.53365L31.2637 8.00085L31.9677 8.4975L32.3003 8.03029L31.5963 7.53365Z" fill="white"/>
<path d="M35.6354 10.3073L36.3258 10.9945L36.2395 11.0803C35.9231 11.3953 35.6067 11.5098 35.3478 11.4239C35.0602 11.338 34.6287 10.9658 33.9959 10.3359C33.3056 9.62014 32.9316 9.10477 32.9316 8.78983C32.9316 8.47488 33.248 8.01678 33.9096 7.35825C34.2835 6.98604 34.6575 6.84288 35.0026 6.95741C35.3478 7.07194 35.8655 7.47278 36.5559 8.18857C37.0736 8.70393 37.3613 9.10477 37.4188 9.39109C37.4763 9.64877 37.39 9.93509 37.0736 10.2214L37.0161 10.2787L36.3258 9.59151L36.3833 9.53425C36.5271 9.39109 36.5846 9.24793 36.5559 9.10477C36.4983 8.96162 36.3258 8.73256 36.0094 8.41762C35.5779 7.98814 35.2903 7.75909 35.1464 7.73046C35.0026 7.70183 34.7438 7.84499 34.4274 8.18857C33.9671 8.61804 33.7658 8.90435 33.737 9.07614C33.737 9.2193 33.9384 9.53425 34.3411 9.93509C34.6862 10.2787 34.9163 10.4791 35.0602 10.5363C35.204 10.5936 35.3478 10.5363 35.5204 10.3932L35.6354 10.3073Z" fill="white"/>
<path d="M39.6328 12.5119C40.0642 13.3422 40.2656 13.8862 40.2081 14.2298C40.1505 14.5448 39.8341 14.8883 39.2301 15.2033C38.5685 15.5469 38.0795 15.6614 37.7919 15.5182C37.5043 15.3751 37.1016 14.8597 36.6126 13.9435C36.1811 13.1132 35.9798 12.5406 36.0086 12.2256C36.0373 11.9107 36.3537 11.5671 36.929 11.2808C37.6193 10.9086 38.1083 10.794 38.3959 10.9372C38.7411 11.0804 39.1438 11.5957 39.6328 12.5119ZM39.115 12.7124C38.7986 12.1397 38.5685 11.8248 38.4247 11.7961C38.2809 11.7389 37.9357 11.882 37.3604 12.1684C36.9578 12.3974 36.7276 12.5692 36.6989 12.741C36.6701 12.9128 36.8139 13.2563 37.1016 13.8003C37.3892 14.3157 37.5906 14.6307 37.7631 14.6879C37.907 14.7452 38.2234 14.6307 38.7123 14.373C39.2013 14.1153 39.4602 13.9149 39.489 13.7717C39.5465 13.5999 39.4314 13.2563 39.115 12.7124Z" fill="white"/>
<path d="M42.1347 21.8172L38.9132 22.3039L38.7693 21.3591L40.5239 21.1014C40.6677 21.0728 40.8116 21.0728 41.0129 21.0441L41.243 21.0155L41.4731 20.9869V20.9582L41.243 20.8723L41.0129 20.7864C40.7828 20.7006 40.639 20.6433 40.5239 20.6147L38.5392 19.7843L38.3954 18.9254L40.0349 17.5511C40.1212 17.4652 40.2651 17.3793 40.4376 17.2361L40.639 17.093L40.8403 16.9498V16.9212L40.6102 16.9785L40.3801 17.0357C40.2075 17.0644 40.0349 17.1216 39.9199 17.1216L38.1653 17.3793L38.0215 16.4345L41.243 15.9477L41.4731 17.4938L40.1212 18.6105C40.0349 18.6963 39.8911 18.7822 39.7185 18.9254L39.5172 19.0686L39.3159 19.2117V19.2403L39.546 19.3262L39.7761 19.4121C39.9774 19.4694 40.15 19.5267 40.2651 19.5839L41.9046 20.2424L42.1347 21.8172Z" fill="white"/>
<path d="M26.9193 34.8159H16.8808L12.1923 30.2062V18.8968H10.8691V11.424H21.109V18.8968H19.7859V27.6294H24.0429V18.8968H22.7198V11.424H32.9597V18.8968H31.6365V30.2062L26.9193 34.8159ZM16.9958 34.5296H26.7755L31.2914 30.0917V18.6105H32.6145V11.7103H22.9787V18.6105H24.3018V27.9157H19.4983V18.6105H20.8214V11.7103H11.1568V18.6105H12.4799V30.0631L16.9958 34.5296Z" fill="#393D46"/>
<path d="M30.6586 25.253V17.9233H31.9817V12.3975H23.6402V17.9233H24.9921V28.5743H18.8079V17.9233H20.1598V12.3975H11.8184V17.9233H13.1415V29.8054L17.2835 33.8425H22.0295L30.6586 25.253Z" fill="#393D46"/>
<path d="M26.3723 34.0715L25.2793 32.9835L26.1134 32.1532C26.3148 31.9527 26.4586 31.8382 26.5737 31.8096C26.6887 31.781 26.8038 31.8096 26.9188 31.9241C27.0626 32.0673 27.0339 32.2104 26.9188 32.4108C27.1202 32.2391 27.3215 32.2391 27.4653 32.3822C27.5804 32.4967 27.6092 32.6113 27.5804 32.7258C27.5516 32.8403 27.4366 32.9835 27.264 33.1839L26.3723 34.0715ZM26.0559 33.1266L26.4586 32.7258C26.5737 32.6113 26.66 32.4967 26.6887 32.4681C26.7175 32.4108 26.6887 32.3536 26.6312 32.2963C26.5449 32.2104 26.4298 32.2391 26.2573 32.4108L25.797 32.8689L26.0559 33.1266ZM26.5161 33.5847L26.8613 33.2412L26.9764 33.1266C27.0914 33.0121 27.1489 32.9262 27.1489 32.8976C27.1777 32.8403 27.1489 32.7831 27.0914 32.7258C27.0339 32.6685 26.9764 32.6399 26.9188 32.6685C26.8613 32.6972 26.775 32.7544 26.6312 32.8976L26.2285 33.2984L26.5161 33.5847Z" fill="#393D46"/>
<path d="M27.5514 30.7216C27.8678 30.4067 28.0979 30.2349 28.2417 30.2349C28.3855 30.2063 28.5869 30.3208 28.817 30.5498C29.0758 30.8075 29.1621 31.0079 29.1621 31.1511C29.1334 31.2943 28.9608 31.5519 28.6156 31.8955C28.2992 32.2105 28.0691 32.3822 27.9253 32.3822C27.7815 32.4109 27.5801 32.325 27.3788 32.0959C27.1199 31.8382 27.0048 31.6378 27.0336 31.466C27.0048 31.3229 27.2062 31.0652 27.5514 30.7216ZM27.6952 30.922C27.4651 31.1511 27.3788 31.2943 27.3788 31.3515C27.3788 31.4374 27.4938 31.5519 27.6952 31.781C27.839 31.9241 27.9541 32.01 28.0403 32.01C28.1266 32.01 28.2705 31.8955 28.4718 31.6951C28.6731 31.4947 28.7594 31.3515 28.7882 31.2943C28.7882 31.2084 28.7019 31.0938 28.5293 30.922C28.3567 30.7503 28.2129 30.6644 28.1554 30.6644C28.0403 30.6071 27.8965 30.7216 27.6952 30.922Z" fill="#393D46"/>
<path d="M29.8814 28.4024V29.4331H30.9744L30.6005 29.8054L30.0827 29.7767C29.9964 29.7767 29.9389 29.7767 29.8526 29.7481H29.7663H29.68V29.834C29.68 29.9199 29.68 30.0344 29.7088 30.1489L29.7375 30.6643L29.3636 31.0365V29.9199H28.3281L28.7021 29.5477L29.1623 29.5763C29.2486 29.5763 29.3061 29.5763 29.3636 29.5763H29.4211H29.4787C29.4787 29.5477 29.4787 29.519 29.4787 29.519V29.4618C29.4787 29.4045 29.4787 29.3186 29.4787 29.2614L29.4499 28.8033L29.8814 28.4024Z" fill="#393D46"/>
</svg>
