<svg width="13" height="15" viewBox="0 0 13 15" fill="none" xmlns="http://www.w3.org/2000/svg">
<path d="M12.125 6.32715C12.125 10.7021 6.5 14.4521 6.5 14.4521C6.5 14.4521 0.875 10.7021 0.875 6.32715C0.875 4.83531 1.46763 3.40456 2.52252 2.34967C3.57742 1.29478 5.00816 0.702148 6.5 0.702148C7.99184 0.702148 9.42258 1.29478 10.4775 2.34967C11.5324 3.40456 12.125 4.83531 12.125 6.32715Z" stroke="#444444" stroke-linecap="round" stroke-linejoin="round"/>
<path d="M6.5 8.20215C7.53553 8.20215 8.375 7.36268 8.375 6.32715C8.375 5.29161 7.53553 4.45215 6.5 4.45215C5.46447 4.45215 4.625 5.29161 4.625 6.32715C4.625 7.36268 5.46447 8.20215 6.5 8.20215Z" stroke="#444444" stroke-linecap="round" stroke-linejoin="round"/>
</svg>
