<svg width="24" height="25" viewBox="0 0 24 25" fill="none" xmlns="http://www.w3.org/2000/svg">
<path d="M12 15.7886C13.6569 15.7886 15 14.4454 15 12.7886C15 11.1317 13.6569 9.78857 12 9.78857C10.3431 9.78857 9 11.1317 9 12.7886C9 14.4454 10.3431 15.7886 12 15.7886Z" stroke="#444444" stroke-width="2" stroke-linecap="round" stroke-linejoin="round"/>
<path d="M19.4 15.7886C19.2669 16.0902 19.2272 16.4248 19.286 16.7492C19.3448 17.0736 19.4995 17.3729 19.73 17.6086L19.79 17.6686C19.976 17.8543 20.1235 18.0749 20.2241 18.3177C20.3248 18.5605 20.3766 18.8207 20.3766 19.0836C20.3766 19.3464 20.3248 19.6067 20.2241 19.8495C20.1235 20.0923 19.976 20.3128 19.79 20.4986C19.6043 20.6845 19.3837 20.832 19.1409 20.9327C18.8981 21.0333 18.6378 21.0851 18.375 21.0851C18.1122 21.0851 17.8519 21.0333 17.6091 20.9327C17.3663 20.832 17.1457 20.6845 16.96 20.4986L16.9 20.4386C16.6643 20.208 16.365 20.0534 16.0406 19.9946C15.7162 19.9358 15.3816 19.9755 15.08 20.1086C14.7842 20.2353 14.532 20.4458 14.3543 20.7141C14.1766 20.9824 14.0813 21.2968 14.08 21.6186V21.7886C14.08 22.319 13.8693 22.8277 13.4942 23.2028C13.1191 23.5779 12.6104 23.7886 12.08 23.7886C11.5496 23.7886 11.0409 23.5779 10.6658 23.2028C10.2907 22.8277 10.08 22.319 10.08 21.7886V21.6986C10.0723 21.3676 9.96512 21.0466 9.77251 20.7773C9.5799 20.508 9.31074 20.3029 9 20.1886C8.69838 20.0555 8.36381 20.0158 8.03941 20.0746C7.71502 20.1334 7.41568 20.288 7.18 20.5186L7.12 20.5786C6.93425 20.7645 6.71368 20.912 6.47088 21.0127C6.22808 21.1133 5.96783 21.1651 5.705 21.1651C5.44217 21.1651 5.18192 21.1133 4.93912 21.0127C4.69632 20.912 4.47575 20.7645 4.29 20.5786C4.10405 20.3928 3.95653 20.1723 3.85588 19.9295C3.75523 19.6867 3.70343 19.4264 3.70343 19.1636C3.70343 18.9007 3.75523 18.6405 3.85588 18.3977C3.95653 18.1549 4.10405 17.9343 4.29 17.7486L4.35 17.6886C4.58054 17.4529 4.73519 17.1536 4.794 16.8292C4.85282 16.5048 4.81312 16.1702 4.68 15.8686C4.55324 15.5728 4.34276 15.3206 4.07447 15.1429C3.80618 14.9652 3.49179 14.8699 3.17 14.8686H3C2.46957 14.8686 1.96086 14.6579 1.58579 14.2828C1.21071 13.9077 1 13.399 1 12.8686C1 12.3381 1.21071 11.8294 1.58579 11.4544C1.96086 11.0793 2.46957 10.8686 3 10.8686H3.09C3.42099 10.8608 3.742 10.7537 4.0113 10.5611C4.28059 10.3685 4.48572 10.0993 4.6 9.78857C4.73312 9.48696 4.77282 9.15238 4.714 8.82799C4.65519 8.50359 4.50054 8.20425 4.27 7.96857L4.21 7.90857C4.02405 7.72283 3.87653 7.50225 3.77588 7.25945C3.67523 7.01666 3.62343 6.75641 3.62343 6.49357C3.62343 6.23074 3.67523 5.97049 3.77588 5.72769C3.87653 5.4849 4.02405 5.26432 4.21 5.07857C4.39575 4.89262 4.61632 4.7451 4.85912 4.64445C5.10192 4.54381 5.36217 4.492 5.625 4.492C5.88783 4.492 6.14808 4.54381 6.39088 4.64445C6.63368 4.7451 6.85425 4.89262 7.04 5.07857L7.1 5.13857C7.33568 5.36911 7.63502 5.52376 7.95941 5.58258C8.28381 5.6414 8.61838 5.60169 8.92 5.46857H9C9.29577 5.34181 9.54802 5.13133 9.72569 4.86304C9.90337 4.59475 9.99872 4.28036 10 3.95857V3.78857C10 3.25814 10.2107 2.74943 10.5858 2.37436C10.9609 1.99929 11.4696 1.78857 12 1.78857C12.5304 1.78857 13.0391 1.99929 13.4142 2.37436C13.7893 2.74943 14 3.25814 14 3.78857V3.87857C14.0013 4.20036 14.0966 4.51475 14.2743 4.78304C14.452 5.05133 14.7042 5.26181 15 5.38857C15.3016 5.52169 15.6362 5.5614 15.9606 5.50258C16.285 5.44376 16.5843 5.28911 16.82 5.05857L16.88 4.99857C17.0657 4.81262 17.2863 4.6651 17.5291 4.56445C17.7719 4.46381 18.0322 4.412 18.295 4.412C18.5578 4.412 18.8181 4.46381 19.0609 4.56445C19.3037 4.6651 19.5243 4.81262 19.71 4.99857C19.896 5.18432 20.0435 5.4049 20.1441 5.64769C20.2448 5.89049 20.2966 6.15074 20.2966 6.41357C20.2966 6.67641 20.2448 6.93666 20.1441 7.17945C20.0435 7.42225 19.896 7.64283 19.71 7.82857L19.65 7.88857C19.4195 8.12425 19.2648 8.42359 19.206 8.74799C19.1472 9.07238 19.1869 9.40696 19.32 9.70857V9.78857C19.4468 10.0843 19.6572 10.3366 19.9255 10.5143C20.1938 10.6919 20.5082 10.7873 20.83 10.7886H21C21.5304 10.7886 22.0391 10.9993 22.4142 11.3744C22.7893 11.7494 23 12.2581 23 12.7886C23 13.319 22.7893 13.8277 22.4142 14.2028C22.0391 14.5779 21.5304 14.7886 21 14.7886H20.91C20.5882 14.7899 20.2738 14.8852 20.0055 15.0629C19.7372 15.2406 19.5268 15.4928 19.4 15.7886Z" stroke="#444444" stroke-width="2" stroke-linecap="round" stroke-linejoin="round"/>
</svg>
