<svg width="24" height="25" viewBox="0 0 24 25" fill="none" xmlns="http://www.w3.org/2000/svg">
<path d="M5 4.78857C3.34459 4.78857 2 6.13316 2 7.78857V17.7886C2 19.444 3.34459 20.7886 5 20.7886H19C20.6554 20.7886 22 19.444 22 17.7886V7.78857C22 6.13317 20.6554 4.78857 19 4.78857H5ZM9.5 14.7886C10.1536 14.7886 10.709 15.2057 10.9148 15.7886H6.08522C6.29096 15.2057 6.84639 14.7886 7.5 14.7886H9.5ZM7.5 10.7886C7.5 10.5234 7.60536 10.269 7.79289 10.0815C7.98043 9.89393 8.23478 9.78857 8.5 9.78857C8.76522 9.78857 9.01957 9.89393 9.20711 10.0815C9.39464 10.269 9.5 10.5234 9.5 10.7886C9.5 11.0538 9.39464 11.3081 9.20711 11.4957C9.01957 11.6832 8.76522 11.7886 8.5 11.7886C8.23478 11.7886 7.98043 11.6832 7.79289 11.4957C7.60536 11.3081 7.5 11.0538 7.5 10.7886Z" stroke="#444444" stroke-width="2"/>
</svg>
