<svg width="25" height="25" viewBox="0 0 25 25" fill="none" xmlns="http://www.w3.org/2000/svg">
<path d="M22.125 12.5771V17.5771C22.125 20.5771 20.125 22.5771 17.125 22.5771H7.125C4.125 22.5771 2.125 20.5771 2.125 17.5771V12.5771C2.125 9.85715 3.765 7.95715 6.315 7.63715C6.575 7.59715 6.845 7.57715 7.125 7.57715H17.125C17.385 7.57715 17.635 7.58714 17.875 7.62714C20.455 7.92714 22.125 9.83715 22.125 12.5771Z" stroke="#FF7800" stroke-width="1.5" stroke-linecap="round" stroke-linejoin="round"/>
<path d="M17.8764 7.62715C17.6364 7.58715 17.3864 7.57716 17.1264 7.57716H7.12641C6.84641 7.57716 6.57641 7.59716 6.31641 7.63716C6.45641 7.35716 6.65641 7.09716 6.89641 6.85716L10.1464 3.59715C11.5164 2.23715 13.7364 2.23715 15.1064 3.59715L16.8564 5.36717C17.4964 5.99717 17.8364 6.79715 17.8764 7.62715Z" stroke="#FF7800" stroke-width="1.5" stroke-linecap="round" stroke-linejoin="round"/>
<path d="M22.125 13.0771H19.125C18.025 13.0771 17.125 13.9771 17.125 15.0771C17.125 16.1771 18.025 17.0771 19.125 17.0771H22.125" stroke="#FF7800" stroke-width="1.5" stroke-linecap="round" stroke-linejoin="round"/>
</svg>
